# xmcd CD database file
#
# Track frame offsets:
#	150
#	27940
#	54998
#	83453
#	105493
#	130363
#	151500
#	189628
#	216319
#	241987
#
# Disc length: 3523 seconds
#
# Revision: 0
# Processed by: cddbd v1.5.1PL0 Copyright (c) Steve Scherf et al.
# Submitted via: CDex 1.51
#
DISCID=760dc10a
DTITLE=Jorge Navarro and Guillermo Romero - Pianistas
DYEAR=2005
DGENRE=Jazz
TTITLE0=In Your Own Sweet Way
TTITLE1=50# Blues
TTITLE2=Bud Powell
TTITLE3=Ain't Misbehavin'
TTITLE4=Rumbita Coreana
TTITLE5=Vals Con Niebla
TTITLE6=Ruby My Dear - Pannonica - Rhythm-A-Ning
TTITLE7=Looking Up
TTITLE8=Eva
TTITLE9=El Loco Son Ustedes
EXTD=YEAR: 2005
EXTT0=
EXTT1=
EXTT2=
EXTT3=
EXTT4=
EXTT5=
EXTT6=
EXTT7=
EXTT8=
EXTT9=
PLAYORDER=
